<svg width="784" height="784" viewBox="0 0 784 784" fill="none" xmlns="http://www.w3.org/2000/svg">
<path d="M392.229 783.51C608.377 783.51 783.599 608.287 783.599 392.14C783.599 175.992 608.377 0.769531 392.229 0.769531C176.082 0.769531 0.859375 175.992 0.859375 392.14C0.859375 608.287 176.082 783.51 392.229 783.51Z" fill="#00BED6"/>
<path d="M182.109 364.411L193.669 490.421L505.809 504.291L583.259 688.111L612.159 682.331L608.699 357.471L182.109 364.411Z" fill="white"/>
<path d="M187.892 404.87L583.262 403.33L600.602 683.3L365.922 570.19L183.262 480.01L187.892 404.87Z" fill="#EBF0F3"/>
<path d="M184.801 427.99H570.161L600.601 683.3L348.191 592.54L190.971 503.52L184.801 427.99Z" fill="white"/>
<path d="M622.819 674.891L622.929 353.221C622.906 348.474 621.008 343.93 617.65 340.575C614.292 337.221 609.746 335.329 604.999 335.311H378.109C371.109 335.141 365.649 322.311 365.649 317.311V315.261C365.636 310.195 363.619 305.341 360.038 301.759C356.458 298.176 351.604 296.156 346.539 296.141H225.799C220.741 296.162 215.898 298.185 212.328 301.768C208.758 305.351 206.752 310.203 206.749 315.261V317.311C206.749 322.311 201.229 335.391 194.049 335.391H194.259C189.553 335.454 185.059 337.365 181.75 340.712C178.44 344.059 176.579 348.574 176.569 353.281L176.649 446.411H137.999C137.999 446.411 120.909 445.491 126.999 465.821L167.719 674.881C167.719 685.421 175.049 693.881 185.579 693.881H613.999C624.539 693.921 622.819 674.891 622.819 674.891ZM600.819 473.341L600.599 683.341L560.109 458.241C556.679 445.881 542.709 446.731 542.709 446.731H198.709V375.291H600.839V473.291L600.819 473.341Z" fill="#FFD85A"/>
<path d="M538.349 525.75L515.509 567.42L426.859 518.83C436.122 505.91 443.791 491.919 449.699 477.16L538.349 525.75Z" fill="#3A556A"/>
<path d="M620.968 555.814L540.847 511.894C529.538 505.695 515.346 509.837 509.147 521.145L494.953 547.04C488.754 558.348 492.896 572.541 504.204 578.74L584.326 622.66C595.634 628.858 609.827 624.716 616.025 613.408L630.22 587.513C636.419 576.205 632.277 562.013 620.968 555.814Z" fill="#3A556A"/>
<path d="M462.731 488.64C474.025 458.636 473.233 425.419 460.52 395.987C447.807 366.556 424.167 343.208 394.579 330.862C364.992 318.516 331.767 318.137 301.906 329.804C272.044 341.471 247.877 364.274 234.496 393.407C221.115 422.541 219.564 455.731 230.171 485.986C240.778 516.24 262.714 541.196 291.357 555.596C320.001 569.997 353.116 572.717 383.725 563.183C414.335 553.65 440.049 532.608 455.451 504.49C458.252 499.387 460.684 494.09 462.731 488.64ZM298.301 536.91C279.654 526.666 264.603 510.942 255.184 491.865C245.766 472.787 242.434 451.278 245.639 430.245C248.844 409.212 258.432 389.672 273.106 374.266C287.779 358.86 306.831 348.333 327.683 344.109C348.534 339.884 370.181 342.166 389.694 350.645C409.206 359.125 425.644 373.393 436.783 391.519C447.922 409.646 453.225 430.756 451.974 451.995C450.724 473.234 442.98 493.576 429.791 510.27C414.545 529.518 392.981 542.751 368.916 547.627C344.85 552.503 319.836 548.706 298.301 536.91Z" fill="#3A556A"/>
<path d="M439.432 495.77C467.031 445.423 448.59 382.235 398.242 354.636C347.895 327.037 284.707 345.479 257.109 395.826C229.51 446.174 247.951 509.361 298.299 536.96C348.646 564.559 411.834 546.117 439.432 495.77Z" fill="#EBF0F3"/>
<path d="M180.136 213.28V189.952H226.936V171.808H180.136V149.92H233.128V131.2H156.952V232H235V213.28H180.136ZM351.193 153.376C339.529 153.376 329.449 158.128 323.257 166.048C317.785 157.552 308.569 153.376 297.769 153.376C287.833 153.376 279.193 156.832 273.433 163.456V154.528H251.977V232H274.441V193.12C274.441 179.296 281.497 172.816 291.433 172.816C300.793 172.816 306.121 178.576 306.121 191.104V232H328.585V193.12C328.585 179.296 335.641 172.816 345.721 172.816C354.793 172.816 360.409 178.576 360.409 191.104V232H382.873V187.648C382.873 164.032 369.625 153.376 351.193 153.376ZM448.801 153.376C438.433 153.376 430.081 156.688 424.465 163.456V154.528H403.009V259.936H425.473V223.792C431.233 230.128 439.153 233.152 448.801 233.152C470.545 233.152 487.393 217.6 487.393 193.264C487.393 168.928 470.545 153.376 448.801 153.376ZM444.913 214.72C433.681 214.72 425.185 206.656 425.185 193.264C425.185 179.872 433.681 171.808 444.913 171.808C456.145 171.808 464.641 179.872 464.641 193.264C464.641 206.656 456.145 214.72 444.913 214.72ZM546.351 212.416C543.903 214.288 540.591 215.296 537.279 215.296C531.231 215.296 527.631 211.696 527.631 205.072V173.536H546.927V156.256H527.631V137.392H505.167V156.256H493.215V173.536H505.167V205.36C505.167 223.792 515.823 233.152 534.111 233.152C541.023 233.152 547.791 231.568 552.399 228.256L546.351 212.416ZM618.898 154.528L597.01 207.088L575.266 154.528H552.082L585.634 232.576L585.346 233.296C582.322 240.208 578.866 242.944 572.674 242.944C568.21 242.944 563.458 241.072 560.002 238.048L551.794 254.032C556.834 258.496 565.474 261.088 573.394 261.088C587.362 261.088 598.018 255.472 605.506 236.752L640.498 154.528H618.898Z" fill="white"/>
</svg>
